<svg xmlns="http://www.w3.org/2000/svg" width="640" height="192" viewBox="0 0 640 192" fill="none">
  <defs>
    
    <linearGradient id="orangeGrad" x1="0%" y1="0%" x2="100%" y2="100%">
      <stop offset="0%" stop-color="#FB923C" />
      <stop offset="100%" stop-color="#EA580C" />
    </linearGradient>
    
  </defs>
  <g transform="translate(32, 32) scale(0.25)">
<path d="M 80,120 L 120,80 L 216,184 L 184,216 Z" fill="#FFFFFF" />
<path d="M 432,120 L 392,80 L 296,184 L 328,216 Z" fill="#FFFFFF" />
<path d="M 80,392 L 120,432 L 216,328 L 184,296 Z" fill="#FFFFFF" />
<path d="M 432,392 L 392,432 L 296,328 L 328,296 Z" fill="#FFFFFF" />
<path d="M 220,235 L 175,220 L 150,235" stroke="#FFFFFF" stroke-width="5" stroke-linecap="round" stroke-linejoin="round" fill="none" />
<path d="M 292,235 L 337,220 L 362,235" stroke="#FFFFFF" stroke-width="5" stroke-linecap="round" stroke-linejoin="round" fill="none" />
<path d="M 220,260 L 165,260 L 145,285" stroke="#FFFFFF" stroke-width="5" stroke-linecap="round" stroke-linejoin="round" fill="none" />
<path d="M 292,260 L 347,260 L 367,285" stroke="#FFFFFF" stroke-width="5" stroke-linecap="round" stroke-linejoin="round" fill="none" />
<path d="M 224,285 L 175,310 L 165,345" stroke="#FFFFFF" stroke-width="5" stroke-linecap="round" stroke-linejoin="round" fill="none" />
<path d="M 288,285 L 337,310 L 347,345" stroke="#FFFFFF" stroke-width="5" stroke-linecap="round" stroke-linejoin="round" fill="none" />
<path d="M 246,182 C 240,165 225,150 205,142" stroke="#FFFFFF" stroke-width="4.5" stroke-linecap="round" fill="none" />
<path d="M 266,182 C 272,165 287,150 307,142" stroke="#FFFFFF" stroke-width="4.5" stroke-linecap="round" fill="none" />
<path d="M 228,205 L 256,175 L 284,205 L 270,215 L 242,215 Z" fill="#FFFFFF" />
<path d="M 240,203 L 250,193 L 252,203 Z" fill="#FFFFFF" />
<path d="M 272,203 L 262,193 L 260,203 Z" fill="#FFFFFF" />
<path d="M 252,218 L 226,236 C 222,239 220,244 220,249 L 220,280 C 220,283 222,286 224,288 L 252,312 Z" fill="#FFFFFF" />
<path d="M 260,218 L 286,236 C 290,239 292,244 292,249 L 292,280 C 292,283 290,286 288,288 L 260,312 Z" fill="#FFFFFF" />
<path d="M 242,252 L 234,260 L 242,268" stroke="#000000" stroke-width="4.5" stroke-linecap="round" stroke-linejoin="round" fill="none" />
<path d="M 270,252 L 278,260 L 270,268" stroke="#000000" stroke-width="4.5" stroke-linecap="round" stroke-linejoin="round" fill="none" />
<path d="M 260,248 L 252,272" stroke="#000000" stroke-width="4.5" stroke-linecap="round" stroke-linejoin="round" fill="none" />
</g>
<g transform="translate(192, 36)">
<path d="M 16,20 L 26,20 L 26,48 C 32,44 40,42 49,42 C 67,42 81,54 81,71 C 81,88 67,100 49,100 C 40,100 32,98 26,94 L 26,100 L 16,100 Z M 26,72 C 26,82 36,90 48.5,90 C 61,90 71,82 71,72 C 71,62 61,54 48.5,54 C 36,54 26,62 26,72 Z" fill="#FFFFFF" />
<path d="M 94,44 L 104,44 L 104,74 C 104,84 111,90 120,90 C 129,90 135,84 135,74 L 135,44 L 145,44 L 145,100 L 135,100 L 135,92 C 130,97 122,100 115,100 C 101,100 94,90 94,74 Z" fill="#FFFFFF" />
<path d="M 158,72 C 158,56 170,44 186,44 C 197,44 206,53 208,62 L 208,44 L 218,44 L 218,104 C 218,116 208,124 193,124 C 178,124 168,118 166,110 L 176,108 C 177,112 183,115 193,115 C 202,115 208,110 208,100 L 208,92 C 204,96 195,100 186,100 C 170,100 158,88 158,72 Z M 168,72 C 168,82 176,90 188,90 C 200,90 208,82 208,72 C 208,62 200,54 188,54 C 176,54 168,62 168,72 Z" fill="#FFFFFF" />
<path d="M 244,36 L 264,56 L 284,36 L 296,48 L 276,68 L 296,88 L 284,100 L 264,80 L 244,100 L 232,88 L 252,68 L 232,48 Z" fill="#F97316" />
</g>
</svg>